<?xml version="1.0" encoding="UTF-8" standalone="no"?>
<svg
   width="128"
   height="128"
   viewBox="0 0 33.866666 33.866666"
   version="1.1"
   id="svg8"
   xml:space="preserve"
   xmlns="http://www.w3.org/2000/svg"
   xmlns:svg="http://www.w3.org/2000/svg"
   xmlns:rdf="http://www.w3.org/1999/02/22-rdf-syntax-ns#"
   xmlns:cc="http://creativecommons.org/ns#"
   xmlns:dc="http://purl.org/dc/elements/1.1/"><defs
     id="defs2" /><metadata
     id="metadata5"><rdf:RDF><cc:Work
         rdf:about=""><dc:format>image/svg+xml</dc:format><dc:type
           rdf:resource="http://purl.org/dc/dcmitype/StillImage" /></cc:Work></rdf:RDF></metadata><g
     id="layer1"><path
       style="fill:#333333;stroke:#ffffff;stroke-width:0.2364501;stroke-dasharray:none;stroke-opacity:1"
       id="path15"
       d="m 14.808039,12.606341 -3.54931,2.049195 -3.54931,-2.049195 0,-4.09839 3.54931,-2.049195 3.54931,2.049195 z"
       transform="matrix(2.2024957,0,0,2.2740022,-7.863972,-0.08382982)" /><path
       style="fill:#e6e6e6;stroke:#ffffff;stroke-width:0.2364501;stroke-dasharray:none;stroke-opacity:1"
       id="path4"
       d="m 14.808039,12.606341 -3.54931,2.049195 -3.54931,-2.049195 0,-4.09839 3.54931,-2.049195 3.54931,2.049195 z"
       transform="matrix(2.2024957,0,0,2.2740022,-15.68131,-14.063452)" /><path
       style="fill:#666666;stroke:#ffffff;stroke-width:0.2364501;stroke-dasharray:none;stroke-opacity:1"
       id="path11"
       d="m 14.808039,12.606341 -3.54931,2.049195 -3.54931,-2.049195 0,-4.09839 3.54931,-2.049195 3.54931,2.049195 z"
       transform="matrix(2.2024957,0,0,2.2740022,-0.04663032,-14.063452)" /><path
       style="fill:#ff2a2a;stroke:#ffffff;stroke-width:0.2364501;stroke-dasharray:none;fill-opacity:0.53191489;stroke-opacity:1"
       id="path19"
       d="m 14.808039,12.606341 -3.54931,2.049195 -3.54931,-2.049195 0,-4.09839 3.54931,-2.049195 3.54931,2.049195 z"
       transform="matrix(2.2024957,0,0,2.2740022,-7.8639701,-9.4035779)" /><path
       style="fill:none;stroke:#ffffff;stroke-width:0.52916667;stroke-linecap:butt;stroke-linejoin:miter;stroke-dasharray:none;stroke-opacity:1"
       d="M 9.1159932,0.62377341 V 19.263269"
       id="path5" /><path
       style="fill:none;stroke:#ffffff;stroke-width:0.52916667;stroke-linecap:butt;stroke-linejoin:miter;stroke-dasharray:none;stroke-opacity:1"
       d="M 1.2986535,5.2836467 16.933334,14.603394"
       id="path6" /><path
       style="fill:none;stroke:#ffffff;stroke-width:0.52916667;stroke-linecap:butt;stroke-linejoin:miter;stroke-dasharray:none;stroke-opacity:1"
       d="M 1.2986535,14.603394 16.933334,5.2836467"
       id="path7" /><path
       style="fill:none;stroke:#ffffff;stroke-width:0.52916667;stroke-linecap:butt;stroke-linejoin:miter;stroke-dasharray:none;stroke-opacity:1"
       d="M 24.750673,0.62377341 V 19.263269"
       id="path12" /><path
       style="fill:none;stroke:#ffffff;stroke-width:0.52916667;stroke-linecap:butt;stroke-linejoin:miter;stroke-dasharray:none;stroke-opacity:1"
       d="m 16.933334,5.2836467 15.63468,9.3197473"
       id="path13" /><path
       style="fill:none;stroke:#ffffff;stroke-width:0.52916667;stroke-linecap:butt;stroke-linejoin:miter;stroke-dasharray:none;stroke-opacity:1"
       d="M 16.933334,14.603394 32.568014,5.2836467"
       id="path14" /><path
       style="fill:none;stroke:#ffffff;stroke-width:0.52916667;stroke-linecap:butt;stroke-linejoin:miter;stroke-dasharray:none;stroke-opacity:1"
       d="M 16.933332,14.603396 V 33.242893"
       id="path16" /><path
       style="fill:none;stroke:#ffffff;stroke-width:0.52916667;stroke-linecap:butt;stroke-linejoin:miter;stroke-dasharray:none;stroke-opacity:1"
       d="M 9.1159921,19.263269 24.750672,28.583018"
       id="path17" /><path
       style="fill:none;stroke:#ffffff;stroke-width:0.52916667;stroke-linecap:butt;stroke-linejoin:miter;stroke-dasharray:none;stroke-opacity:1"
       d="M 9.1159921,28.583018 24.750672,19.263269"
       id="path18" /></g></svg>
